<svg xmlns="http://www.w3.org/2000/svg" viewBox="0 0 1600 1000">
  <defs>
    <linearGradient id="g" x1="0" x2="1" y1="0" y2="1">
      <stop offset="0" stop-color="#1d4ed8"/>
      <stop offset=".45" stop-color="#0f172a"/>
      <stop offset="1" stop-color="#047857"/>
    </linearGradient>
    <linearGradient id="window" x1="0" x2="1">
      <stop offset="0" stop-color="#dbeafe"/>
      <stop offset="1" stop-color="#60a5fa"/>
    </linearGradient>
  </defs>
  <rect width="1600" height="1000" fill="url(#g)"/>
  <circle cx="1220" cy="160" r="240" fill="#3b82f6" opacity=".18"/>
  <circle cx="260" cy="820" r="280" fill="#10b981" opacity=".16"/>
  <path d="M220 760h1160v90H220z" fill="#020617" opacity=".45"/>
  <path d="M330 735V360l250-150 250 150v375z" fill="#111827" stroke="#93c5fd" stroke-width="8"/>
  <path d="M800 735V285h420v450z" fill="#0f172a" stroke="#60a5fa" stroke-width="8"/>
  <path d="M295 365 580 180l285 185" fill="none" stroke="#bfdbfe" stroke-width="18" stroke-linecap="round"/>
  <path d="M765 285h500" stroke="#bfdbfe" stroke-width="18" stroke-linecap="round"/>
  <g fill="url(#window)" opacity=".85">
    <rect x="430" y="420" width="90" height="90" rx="8"/>
    <rect x="620" y="420" width="90" height="90" rx="8"/>
    <rect x="430" y="570" width="90" height="90" rx="8"/>
    <rect x="900" y="380" width="90" height="90" rx="8"/>
    <rect x="1060" y="380" width="90" height="90" rx="8"/>
    <rect x="900" y="540" width="90" height="90" rx="8"/>
    <rect x="1060" y="540" width="90" height="90" rx="8"/>
  </g>
</svg>
